<svg width="56" height="45" viewBox="0 0 56 45" fill="none" xmlns="http://www.w3.org/2000/svg">
<path d="M55.9733 10.4049C56.1333 8.26505 55.0667 6.23222 53.2533 5.13556C51.8133 4.46687 50.1067 4.73435 48.9333 5.80426L40.8533 12.8122C39.4667 5.40304 33.04 0.0267477 25.5467 0H5.12C2.29333 0 0 2.3003 0 5.13556V28.3526C0.0266667 37.0188 7.01333 44.0267 15.6533 44.0267H36.08C38.9067 44.0267 41.2 41.7264 41.2 38.8912V30.8936L48.8533 37.634C49.5467 38.276 50.4533 38.6505 51.4133 38.6772C52 38.6772 52.56 38.5435 53.0667 38.3027C54.9333 37.2863 56.0533 35.307 55.9733 33.1672V10.4049ZM36.1067 38.9179H15.4933C9.68 38.8912 4.98667 34.1568 4.98667 28.3258V5.2693H25.4933C31.3067 5.29605 36 10.0036 36.0267 15.8346L36.1067 38.9179ZM51.2533 32.8195L41.3333 24.2067V19.3386L51.2533 10.6991V32.8195Z" fill="#EB5054"/>
<path d="M20.56 30.0645C19.1733 30.0645 18.0533 28.9411 18.0533 27.5502V16.4499C18.0533 15.059 19.1733 13.9356 20.56 13.9356C21.9467 13.9356 23.0667 15.059 23.0667 16.4499V27.5502C23.0667 28.9411 21.9467 30.0645 20.56 30.0645Z" fill="white"/>
<path d="M28.56 28.1921C27.1733 28.1921 26.0533 27.0687 26.0533 25.6778V18.3222C26.0533 16.9313 27.1733 15.8079 28.56 15.8079C29.9467 15.8079 31.0667 16.9313 31.0667 18.3222V25.7046C31.0667 27.0687 29.9467 28.1921 28.56 28.1921Z" fill="white"/>
<path d="M12.56 28.1921C11.1733 28.1921 10.0533 27.0687 10.0533 25.6778V18.3222C10.0533 16.9313 11.1733 15.8079 12.56 15.8079C13.9467 15.8079 15.0667 16.9313 15.0667 18.3222V25.7046C15.0667 27.0687 13.9467 28.1921 12.56 28.1921Z" fill="white"/>
</svg>
