<svg width="370" height="99" viewBox="0 0 370 99" fill="none" xmlns="http://www.w3.org/2000/svg">
<path d="M11.0191 56.9365V69.0377V69.0642V69.0908V69.1136V69.1402V69.1668V69.1895V69.2161V69.2427V69.2655V69.2921V69.3186V69.3414V69.368V69.3946V69.4174V69.4439V69.4705V69.4933V69.5199V69.5465V69.5692V69.5958V69.6224V69.6452V69.6718V69.6983V69.7211V69.7477V69.7743V69.7971V69.8237V69.8502V69.873V69.8996V69.9262V69.949V69.9755V70.0021V70.0249V70.0515V70.0781V70.1008V70.1274V70.154V70.1768V70.2034V70.2299V70.2527V70.2793V70.3059V70.3287V70.3552V70.3818V70.4046V70.4312V70.4578V70.4805V70.5071V70.5337V70.5565V70.5831V70.6096V70.6324V70.659V70.6856V70.7084V70.7349V70.7615V70.7843V70.8109V70.8375V70.8602V70.8868V70.9134V70.9362V70.9628V70.9893V71.0121V71.0387V71.0653V71.0919V71.1146V71.1412V71.1678V71.1906V71.2172V71.2437V71.2665V71.2931V71.3197V71.3425V71.369V71.3956V71.4184V71.445V71.4716V71.4943V71.5209V71.5475V71.5703V71.5969L44.5826 46.92L44.5597 46.9086L44.5826 46.8934L44.5597 46.8858L44.5826 46.8668L44.5597 46.8592L44.5826 46.844L44.5597 46.8326L44.5826 46.8174L44.5597 46.8098L44.5826 46.7909L44.5597 46.7833L44.5826 46.7681L44.5597 46.7567L44.5826 46.7415L44.5597 46.7339L44.5826 46.7149L44.5597 46.7073L44.5826 46.6921L44.5597 46.6807L44.5826 46.6656L44.5597 46.658L44.5826 46.639L44.5597 46.6314L44.5826 46.6162L44.5597 46.6048L44.5826 46.5896L44.5597 46.582L44.5826 46.563L44.5597 46.5554L44.5826 46.5403L44.5597 46.5289L44.5826 46.5137L44.5597 46.5061L44.5826 46.4871L44.5597 46.4795L44.5826 46.4643L44.5597 46.4529L44.5826 46.4377L44.5597 46.4301L44.5826 46.4112L44.5597 46.4036L44.5826 46.3884L44.5597 46.377L44.5826 46.3618L44.5597 46.3542L44.5826 46.3352L44.5597 46.3276L44.5826 46.3124L44.5597 46.301L44.5826 46.2859L44.5597 46.2783L44.5826 46.2593L44.5597 46.2517L44.5826 46.2365L44.5597 46.2251L44.5826 46.2099L44.5597 46.2023L44.5826 46.1833L44.5597 46.1757L44.5826 46.1605L44.5597 46.1492L44.5826 46.134L44.5597 46.1264L44.5826 46.1074L44.5597 46.0998L44.5826 46.0846L44.5597 46.0732L44.5826 46.058L44.5597 46.0504L44.5826 46.0315L44.5597 46.0239L44.5826 46.0087L44.5597 45.9973L44.5826 45.9821L44.5597 45.9745L44.5826 45.9555L44.5597 45.9479L44.5826 45.9327L44.5597 45.9213L44.5826 45.9061L44.5597 45.8986L44.5826 45.8796L44.5597 45.872L44.5826 45.8568L44.5597 45.8454L44.5826 45.8302L44.5597 45.8226L44.5826 45.8036L44.5597 45.796L44.5826 45.7808L44.5597 45.7695L44.5826 45.7543L44.5597 45.7467L44.5826 45.7277L44.5597 45.7201L44.5826 45.7049L44.5597 45.6935L44.5826 45.6783L44.5597 45.6707L44.5826 45.6517L44.5597 45.6442L44.5826 45.629L44.5597 45.6176L44.5826 45.6024L44.5597 45.5948L44.5826 45.5758L44.5597 45.5682L44.5826 45.553L44.5597 45.5416L44.5826 45.5264L44.5597 45.5188L44.5826 45.4999L44.5597 45.4923L44.5826 45.4771L44.5597 45.4657L44.5826 45.4505L44.5597 45.4429L44.5826 45.4239L44.5597 45.4163L44.5826 45.4011L44.5597 45.3898L44.5826 45.3746L44.5597 45.367L44.5826 45.348L44.5597 45.3404L44.5826 45.3252L44.5597 45.3138L44.5826 45.2986L44.5597 45.291L44.5826 45.272L44.5597 45.2644L44.5826 45.2493L44.5597 45.2379L44.5826 45.2227L44.5597 45.2113L44.5826 45.1961L44.5597 45.1885L44.5826 45.1733L44.5597 45.1619L44.5826 45.1467L44.5597 45.1354L44.5826 45.1202L44.5597 45.1126L44.5826 45.0974L44.5597 45.086L44.5826 45.0708L44.5597 45.0594L44.5826 45.0442L44.5597 45.0366L44.5826 45.0214L44.5597 45.01L44.5826 44.9949L44.5597 44.9835L44.5826 44.9683L44.5597 44.9607L44.5826 44.9455L44.5597 44.9341L44.5826 44.9189L44.5597 44.9075L44.5826 44.8923L44.5597 44.8847L44.5826 44.8696L44.5597 44.8582L44.5826 44.843L44.5597 44.8316L44.5826 44.8164L44.5597 44.8088L44.5826 44.7898L44.5597 44.7822L44.5826 44.767L44.5597 44.7556L44.5826 44.7405L44.5597 44.7329L44.5826 44.7139L44.5597 44.7063L44.5826 44.6911L44.5597 44.6797L44.5826 44.6645L44.5597 44.6569L44.5826 44.6379L44.5597 44.6303L44.5826 44.6152L44.5597 44.6038L44.5826 44.5886L44.5597 44.581L44.5826 44.562L44.5597 44.5544L44.5826 44.5392L44.5597 44.5278L44.5826 44.5126L44.5597 44.505L44.5826 44.4861L44.5597 44.4785L44.5826 44.4633L44.5597 44.4519L44.5826 44.4367L44.5597 44.4291L44.5826 44.4101L44.5597 44.4025L44.5826 44.3873L44.5597 44.3759L44.5826 44.3608L17.7196 33.1595V27.145L44.7005 38.3956L51.401 33.4709L51.3782 33.4595L51.401 33.4443L51.3782 33.4329L51.401 33.4177L51.3782 33.4101L51.401 33.3949L51.3782 33.3835L51.401 33.3684L51.3782 33.357L51.401 33.3418L51.3782 33.3342L51.401 33.319L51.3782 33.3076L51.401 33.2924L51.3782 33.281L51.401 33.2658L51.3782 33.2582L51.401 33.243L51.3782 33.2317L51.401 33.2165L51.3782 33.2051L51.401 33.1899L51.3782 33.1823L51.401 33.1671L51.3782 33.1557L51.401 33.1405L51.3782 33.1291L51.401 33.1139L51.3782 33.1064L51.401 33.0874L51.3782 33.0798L51.401 33.0646L51.3782 33.0532L51.401 33.038L51.3782 33.0304L51.401 33.0114L51.3782 33.0038L51.401 32.9886L51.3782 32.9773L51.401 32.9621L51.3782 32.9545L51.401 32.9355L51.3782 32.9279L51.401 32.9127L51.3782 32.9013L51.401 32.8861L51.3782 32.8785L51.401 32.8595L51.3782 32.852L51.401 32.8368L51.3782 32.8254L51.401 32.8102L51.3782 32.8026L51.401 32.7836L51.3782 32.776L51.401 32.7608L51.3782 32.7494L51.401 32.7342L51.3782 32.7267L51.401 32.7077L51.3782 32.7001L51.401 32.6849L51.3782 32.6735L51.401 32.6583L51.3782 32.6507L51.401 32.6317L51.3782 32.6241L51.401 32.6089L51.3782 32.5976L51.401 32.5824L51.3782 32.5748L51.401 32.5558L51.3782 32.5482L51.401 32.533L51.3782 32.5216L51.401 32.5064L51.3782 32.4988L51.401 32.4798L51.3782 32.4722L51.401 32.4571L51.3782 32.4457L51.401 32.4305L51.3782 32.4229L51.401 32.4039L51.3782 32.3963L51.401 32.3811L51.3782 32.3697L51.401 32.3545L51.3782 32.347L51.401 32.328L51.3782 32.3204L51.401 32.3052L51.3782 32.2938L51.401 32.2786L51.3782 32.271L51.401 32.252L51.3782 32.2444L51.401 32.2292L51.3782 32.2178L51.401 32.2027L51.3782 32.1951L51.401 32.1761L51.3782 32.1685L51.401 32.1533L51.3782 32.1419L51.401 32.1267L51.3782 32.1191L51.401 32.1001L51.3782 32.0925L51.401 32.0774L51.3782 32.066L51.401 32.0508L51.3782 32.0432L51.401 32.0242L51.3782 32.0166L51.401 32.0014L51.3782 31.99L51.401 31.9748L51.3782 31.9672L51.401 31.9483L51.3782 31.9407L51.401 31.9255L51.3782 31.9141L51.401 31.8989L51.3782 31.8913L51.401 31.8723L51.3782 31.8647L51.401 31.8495L51.3782 31.8381L51.401 31.823L51.3782 31.8154L51.401 31.7964L51.3782 31.7888L51.401 31.7736L51.3782 31.7622L51.401 31.747L51.3782 31.7394L51.401 31.7204L51.3782 31.7128L51.401 31.6977L51.3782 31.6863L51.401 31.6711L51.3782 31.6635L51.401 31.6445L51.3782 31.6369L51.401 31.6217L51.3782 31.6103L51.401 31.5951L51.3782 31.5875L51.401 31.5686L51.3782 31.561L51.401 31.5458L51.3782 31.5344L51.401 31.5192L51.3782 31.5116L51.401 31.4926L51.3782 31.485L51.401 31.4698L51.3782 31.4584L51.401 31.4433L51.3782 31.4357L51.401 31.4167L51.3782 31.4091L51.401 31.3939L51.3782 31.3825L51.401 31.3673L51.3782 31.3559L51.401 31.3407L51.3782 31.3331L51.401 31.318L51.3782 31.3066L51.401 31.2914L51.3782 31.28L51.401 31.2648L51.3782 31.2572L51.401 31.242L51.3782 31.2306L51.401 31.2154L51.3782 31.204L51.401 31.1889L51.3782 31.1813L51.401 31.1661L51.3782 31.1547L51.401 31.1395L51.3782 31.1281L51.401 31.1129L51.3782 31.1053L51.401 31.0901L51.3782 31.0787L51.401 31.0636L51.3782 31.0522L51.401 31.037L51.3782 31.0294L51.401 31.0142L51.3782 31.0028L51.401 30.9876L51.3782 30.9762L51.401 30.961L51.3782 30.9534L51.401 30.9383L51.3782 30.9269L51.401 30.9117L11.0191 14.0718V14.0946V14.1212V14.1478V14.1706V14.1971V14.2237V14.2465V14.2731V14.2997V14.3224V14.349V14.3756V14.3984V14.425V14.4515V14.4781V14.5009V14.5275V14.5541V14.5768V14.6034V14.63V14.6528V14.6794V14.7059V14.7287V14.7553V14.7819V14.8047V14.8312V14.8578V14.8806V14.9072V14.9338V14.9565V14.9831V15.0097V15.0325V15.0591V15.0856V15.1084V15.135V15.1616V15.1844V15.2109V15.2375V15.2603V15.2869V15.3135V15.3362V15.3628V15.3894V15.4122V15.4388V15.4653V15.4881V15.5147V15.5413V15.5641V15.5907V15.6172V15.64V15.6666V15.6932V15.716V15.7425V15.7691V15.7919V15.8185V15.8451V15.8678V15.8944V15.921V15.9438V15.9704V15.9969V16.0197V16.0463V16.0729V16.0957V16.1222V16.1488V16.1716V16.1982V16.2248V16.2475V16.2741V16.3007V16.3235V16.3501V16.3766V16.3994V16.426V16.4526V16.4754V16.5019V16.5285V16.5513V16.5779V16.6045V16.631V38.0881V38.1108V38.1374V38.164V38.1868V38.2134V38.2399V38.2627V38.2893V38.3159V38.3387V38.3652V38.3918V38.4146V38.4412V38.4678V38.4905V38.5171V38.5437V38.5665V38.5931V38.6196V38.6424V38.669V38.6956V38.7184V38.7449V38.7715V38.7943V38.8209V38.8475V38.8702V38.8968V38.9234V38.9462V38.9728V38.9993V39.0221V39.0487V39.0753V39.0981V39.1246V39.1512V39.174V39.2006V39.2272V39.25V39.2765V39.3031V39.3259V39.3525V39.379V39.4018V39.4284V39.455V39.4778V39.5044V39.5309V39.5537V39.5803V39.6069V39.6297V39.6562V39.6828V39.7056V39.7322V39.7588V39.7815V39.8081V39.8347V39.8575V39.8841V39.9106V39.9372V39.96V39.9866V40.0132V40.0359V40.0625V40.0891V40.1119V40.1385V40.165V40.1878V40.2144V40.241V40.2638V40.2903V40.3169V40.3397V40.3663V40.3929V40.4156V40.4422V40.4688V40.4916V40.5182V40.5447V40.5675V40.5941V40.6207V40.6435L28.9595 48.1274L17.7196 56.3898V52.0118V51.9852V51.9624V51.9358V51.9093V51.8865V51.8599V51.8333V51.8105V51.784V51.7574V51.7346V51.708V51.6814V51.6587V51.6321V51.6055V51.5827V51.5561V51.5296V51.5068V51.4802V51.4536V51.4308V51.4043V51.3777V51.3549V51.3283V51.3017V51.2789V51.2524V51.2258V51.203V51.1764V51.1499V51.1271V51.1005V51.0739V51.0511V51.0246V50.998V50.9752V50.9486V50.922V50.8992V50.8727V50.8461V50.8233V50.7967V50.7701V50.7436V50.7208V50.6942V50.6676V50.6448V50.6183V50.5917V50.5689V50.5423V50.5157V50.493V50.4664V50.4398V50.417V50.3904V50.3639V50.3411V50.3145V50.2879V50.2651V50.2386V50.212V50.1892V50.1626V50.136V50.1133V50.0867V50.0601V50.0373V50.0107V49.9842V49.9614V49.9348V49.9082V49.8854V49.8589V49.8323V49.8095V49.7829V49.7563V49.7336V49.707V49.6804V49.6576V49.631V49.6045V49.5817V49.5551V49.5285V49.5057V49.4792V49.4526L11.0039 46.6542V56.9327L11.0191 56.9365Z" fill="#EA5054"/>
<path d="M80.7485 87.0052L96.1319 49.0273C96.5124 48.0438 97.1935 47.5502 98.1828 47.5502H106.329C107.162 47.5502 107.638 47.911 107.752 48.6286L109.86 68.0732C109.936 68.301 109.993 68.4149 110.031 68.4149C110.107 68.4149 110.203 68.358 110.317 68.244L128.093 48.6286C128.778 47.9072 129.517 47.5502 130.316 47.5502H139.318C140.304 47.5502 140.608 48.0438 140.231 49.0273L124.848 87.0052C124.467 87.9924 123.763 88.4822 122.74 88.4822H113.794C112.805 88.4822 112.501 87.9886 112.881 87.0052L118.01 74.2699L109.464 83.0828C108.78 83.8043 108.041 84.1612 107.242 84.1612H100.576C99.701 84.1612 99.2101 83.8005 99.096 83.0828L97.8441 74.3269L92.7151 87.0052C92.3346 87.9924 91.6116 88.4822 90.5501 88.4822H81.6046C80.6534 88.4822 80.368 87.9924 80.7485 87.0052Z" fill="white"/>
<path d="M153.56 69.6072C154.888 69.797 155.999 69.9413 156.893 70.0324C157.783 70.1274 158.328 70.1767 158.518 70.1767C159.089 70.1767 159.477 70.1122 159.686 69.9793C159.895 69.8464 160.093 69.554 160.283 69.0984L160.34 68.9275C160.531 68.3959 160.595 68.0656 160.538 67.9327C160.481 67.7998 160.188 67.7352 159.656 67.7352H151.909C151.072 67.7352 150.505 68.1339 150.2 68.9275L146.213 78.7618C145.908 79.5592 146.156 79.9541 146.955 79.9541H160.744C161.391 79.9541 161.577 80.2768 161.314 80.9185L158.636 87.514C158.369 88.1595 157.913 88.4822 157.27 88.4822H139.893C137.613 88.4822 136 87.6848 135.049 86.0939C134.098 84.5029 134.079 82.5702 134.992 80.2958L140.235 67.3897C141.411 64.5116 142.883 62.4232 144.649 61.136C146.414 59.8488 148.781 59.2033 151.741 59.2033H166.44C168.909 59.2033 170.618 59.8754 171.569 61.2233C172.516 62.5675 172.482 64.5116 171.455 67.0518L169.518 71.9423C168.453 74.5585 167.22 76.4152 165.816 77.5126C164.412 78.6137 162.68 79.1605 160.63 79.1605C159.831 79.1605 158.453 79.039 156.497 78.7922C154.542 78.5454 152.46 78.234 150.257 77.8543C149.61 77.7404 149.439 77.3607 149.744 76.719L152.251 70.4653C152.517 69.8616 152.822 69.554 153.164 69.554C153.24 69.554 153.305 69.5654 153.362 69.5844C153.419 69.5996 153.484 69.6072 153.56 69.6072Z" fill="white"/>
<path d="M189.113 69.6072C190.441 69.797 191.552 69.9413 192.447 70.0324C193.337 70.1274 193.881 70.1767 194.071 70.1767C194.642 70.1767 195.03 70.1122 195.239 69.9793C195.449 69.8464 195.647 69.554 195.837 69.0984L195.894 68.9275C196.084 68.3959 196.149 68.0656 196.092 67.9327C196.035 67.7998 195.742 67.7352 195.209 67.7352H187.462C186.625 67.7352 186.058 68.1339 185.754 68.9275L181.766 78.7618C181.462 79.5592 181.709 79.9541 182.508 79.9541H196.297C196.944 79.9541 197.13 80.2768 196.868 80.9185L194.189 87.514C193.923 88.1595 193.466 88.4822 192.823 88.4822H175.446C173.167 88.4822 171.554 87.6848 170.602 86.0939C169.651 84.5029 169.632 82.5702 170.545 80.2958L175.789 67.3897C176.964 64.5116 178.437 62.4232 180.202 61.136C181.968 59.8488 184.334 59.2033 187.295 59.2033H201.993C204.463 59.2033 206.171 59.8754 207.122 61.2233C208.07 62.5675 208.035 64.5116 207.008 67.0518L205.071 71.9423C204.006 74.5585 202.773 76.4152 201.369 77.5126C199.965 78.6137 198.234 79.1605 196.183 79.1605C195.384 79.1605 194.007 79.039 192.051 78.7922C190.095 78.5454 188.014 78.234 185.811 77.8543C185.164 77.7404 184.993 77.3607 185.297 76.719L187.805 70.4653C188.071 69.8616 188.375 69.554 188.718 69.554C188.794 69.554 188.859 69.5654 188.916 69.5844C188.969 69.5996 189.037 69.6072 189.113 69.6072Z" fill="white"/>
<path d="M207.628 80.1819L212.301 68.5819C212.415 68.3541 212.358 68.2402 212.13 68.2402H209.965C209.165 68.2402 208.918 67.8036 209.223 66.934L211.844 60.5095C212.149 59.6741 212.735 59.2602 213.61 59.2602H215.775C216.041 59.2602 216.193 59.1463 216.231 58.9185L218.853 52.4939C219.195 51.6244 219.781 51.1877 220.618 51.1877H229.107C229.906 51.1877 230.15 51.6244 229.849 52.4939L227.228 58.9185C227.19 59.1463 227.266 59.2602 227.456 59.2602H234.122C234.993 59.2602 235.264 59.6779 234.921 60.5095L232.3 66.934C231.957 67.8074 231.348 68.2402 230.477 68.2402H223.811C223.582 68.2402 223.411 68.3541 223.297 68.5819L219.252 78.6441C219.062 79.2136 219.233 79.4984 219.766 79.4984H226.832C227.631 79.4984 227.874 79.9161 227.574 80.7476L224.952 87.2292C224.648 88.0645 224.058 88.4784 223.187 88.4784H212.59C210.159 88.4784 208.477 87.7114 207.548 86.1774C206.612 84.6434 206.639 82.6462 207.628 80.1819Z" fill="white"/>
<path d="M239.019 60.5095C239.362 59.6742 239.967 59.2603 240.842 59.2603H249.273C250.145 59.2603 250.415 59.678 250.072 60.5095L239.247 87.233C238.943 88.0684 238.334 88.4823 237.425 88.4823H228.993C228.156 88.4823 227.89 88.0646 228.194 87.233L239.019 60.5095ZM243.634 49.1374C243.939 48.3059 244.548 47.8882 245.457 47.8882H253.889C254.722 47.8882 254.988 48.3059 254.688 49.1374L252.18 55.2202C251.876 56.0936 251.267 56.5264 250.358 56.5264H241.926C241.089 56.5264 240.823 56.0898 241.127 55.2202L243.634 49.1374Z" fill="white"/>
<path d="M245.4 87.233L256.225 60.5095C256.568 59.6742 257.173 59.2603 258.048 59.2603H266.479C267.313 59.2603 267.56 59.678 267.221 60.5095L256.396 87.233C256.054 88.0684 255.464 88.4823 254.631 88.4823H246.199C245.362 88.4823 245.096 88.0646 245.4 87.233ZM265.113 87.233L272.636 68.6428C272.826 68.0732 272.75 67.7884 272.408 67.7884H272.293L266.993 68.5289H266.708C266.213 68.5289 266.118 68.1302 266.422 67.3366L268.816 61.5385C269.158 60.7032 269.744 60.2134 270.581 60.0615C275.101 59.2299 278.161 58.8123 279.755 58.8123C281.844 58.8123 283.343 59.6286 284.256 61.2575C285.169 62.8865 285.169 64.8381 284.256 67.1126L276.11 87.2406C275.805 88.076 275.216 88.4899 274.344 88.4899H265.855C265.056 88.4823 264.809 88.0646 265.113 87.233Z" fill="white"/>
<path d="M301.291 68.244C300.682 68.244 300.302 68.5098 300.153 69.0414L296.051 79.1036C295.823 79.6731 295.918 79.9579 296.337 79.9579H296.565L301.865 79.4453H302.037C302.722 79.4453 302.893 79.825 302.55 80.5806L300.157 86.4356C299.853 87.233 299.263 87.7076 298.392 87.8557C296.226 88.1974 294.278 88.4632 292.551 88.6531C290.823 88.8429 289.598 88.9379 288.875 88.9379C286.824 88.9379 285.344 88.1139 284.431 86.466C283.518 84.8181 283.537 82.855 284.488 80.5806L289.731 67.5606C290.983 64.4888 292.475 62.3397 294.202 61.1056C295.93 59.8754 298.35 59.2565 301.466 59.2565H322.545C323.382 59.2565 323.63 59.6741 323.287 60.5057L311.096 90.6959C309.844 93.7677 308.353 95.9168 306.625 97.1508C304.898 98.3811 302.493 99 299.419 99H285.177C284.34 99 284.096 98.5823 284.435 97.7508L286.942 91.4971C287.323 90.6237 287.913 90.1909 288.708 90.1909H299.761C300.332 90.1909 300.732 89.9251 300.956 89.3935L309.445 68.358C309.521 68.282 309.502 68.244 309.388 68.244H301.291Z" fill="white"/>
<path d="M321.061 81.3172C321.442 80.4857 322.047 80.068 322.884 80.068H338.153C338.914 80.068 339.443 79.7073 339.747 78.9896C339.976 78.3062 339.728 77.9644 339.006 77.9644H329.889C327.229 77.9644 325.407 77.0342 324.417 75.1774C323.428 73.3207 323.447 71.1032 324.474 68.525C325.802 65.1912 327.446 62.8105 329.402 61.3904C331.358 59.9703 334.044 59.2565 337.465 59.2565H354.613C355.447 59.2565 355.694 59.6741 355.355 60.5057L352.962 66.4177C352.62 67.253 352.03 67.6669 351.197 67.6669H336.384C335.661 67.6669 335.189 67.9707 334.961 68.5782C334.695 69.1857 334.923 69.4895 335.646 69.4895H344.762C347.46 69.4895 349.283 70.4539 350.23 72.3904C351.178 74.3231 351.12 76.5785 350.059 79.1567C348.693 82.6044 347.038 85.0231 345.101 86.4052C343.164 87.7912 340.486 88.4822 337.069 88.4822H319.463C318.626 88.4822 318.36 88.0646 318.664 87.233L321.061 81.3172Z" fill="white"/>
<path d="M113.84 27.9727C114.525 27.9727 114.712 28.2955 114.411 28.9372L113.897 30.3003C113.669 30.7939 113.802 31.0407 114.297 31.0407H127.915C128.447 31.0407 128.805 30.7939 128.995 30.3003L130.818 25.7515C131.046 25.2579 130.894 25.011 130.361 25.011H114.183C111.561 25.011 109.72 24.1111 108.658 22.3114C107.593 20.5116 107.574 18.3017 108.601 15.6893L111.222 9.32171C112.588 5.94995 114.27 3.55022 116.264 2.13013C118.254 0.710045 120.94 0 124.323 0H142.499C145.121 0 146.962 0.899897 148.024 2.69969C149.086 4.49948 149.105 6.70935 148.081 9.32171L147 11.9948C146.696 12.6403 146.239 12.9631 145.634 12.9631H136.404C135.719 12.9631 135.528 12.6403 135.833 11.9948L136.347 10.6317C136.575 10.1381 136.442 9.89127 135.947 9.89127H122.9C122.367 9.89127 122.006 10.1381 121.815 10.6317L119.993 15.1805C119.765 15.6741 119.917 15.921 120.449 15.921H136.632C139.254 15.921 141.095 16.8208 142.157 18.6206C143.218 20.4204 143.237 22.6303 142.214 25.2427L139.592 31.6103C138.188 34.9858 136.487 37.3818 134.494 38.8019C132.5 40.222 129.832 40.9358 126.488 40.9358H107.745C105.123 40.9358 103.274 40.0359 102.19 38.2361C101.105 36.4363 101.098 34.2264 102.159 31.6141L103.244 28.941C103.548 28.2955 104.004 27.9765 104.609 27.9765H113.84V27.9727Z" fill="#EA5054"/>
<path d="M142.495 39.6866L153.32 12.9631C153.663 12.1277 154.249 11.7138 155.086 11.7138H163.575C164.374 11.7138 164.617 12.1315 164.317 12.9631L153.492 39.6866C153.187 40.5219 152.597 40.9358 151.726 40.9358H143.237C142.438 40.9358 142.191 40.5181 142.495 39.6866ZM163.464 19.7863L165.801 14.0452C165.991 13.5516 166.189 13.2137 166.398 13.02C166.607 12.8302 167.033 12.6783 167.68 12.5644C169.921 12.1847 172.075 11.8733 174.149 11.6265C176.219 11.3797 177.577 11.2582 178.224 11.2582C179.932 11.2582 181.279 11.9037 182.268 13.1909C183.634 12.9631 185.126 12.7352 186.739 12.5074C188.353 12.2796 189.932 12.0708 191.469 11.8809C193.006 11.6911 194.421 11.5392 195.715 11.4253C197.005 11.3114 198.051 11.2544 198.85 11.2544C201.168 11.2544 202.811 12.0708 203.778 13.6997C204.748 15.3286 204.775 17.2803 203.862 19.5547L195.715 39.6828C195.411 40.5181 194.802 40.932 193.893 40.932H185.453C184.654 40.932 184.407 40.5143 184.711 39.6828L192.234 21.0925C192.424 20.5989 192.253 20.3179 191.72 20.2382L182.432 21.0925C182.28 21.0925 182.128 21.2254 181.975 21.4912L174.567 39.6866C174.263 40.5219 173.654 40.9358 172.745 40.9358H164.374C163.575 40.9358 163.327 40.5181 163.632 39.6866L171.154 21.0963C171.421 20.5267 171.306 20.242 170.812 20.242H170.641L164.203 20.9824H163.86C163.255 20.9786 163.122 20.5799 163.464 19.7863Z" fill="#EA5054"/>
<path d="M215.878 30.1902C215.307 30.1902 214.938 30.2548 214.767 30.3877C214.595 30.5205 214.397 30.8699 214.169 31.4394C213.827 32.2368 214.093 32.6317 214.968 32.6317C215.235 32.6317 215.832 32.5861 216.764 32.4912C217.693 32.3963 218.636 32.2938 219.584 32.1799H219.812C220.268 32.1799 220.402 32.4646 220.211 33.0342L217.704 39.2309C217.438 39.8385 216.943 40.2182 216.224 40.37C214.363 40.7118 212.624 40.9966 211.011 41.2244C209.398 41.4522 208.173 41.5661 207.335 41.5661C205.056 41.5661 203.5 40.8637 202.663 39.4626C201.826 38.0615 201.864 36.2237 202.777 33.9493L204.486 29.6852C205.585 26.9551 206.982 24.9655 208.675 23.7163C210.364 22.467 212.579 21.8405 215.311 21.8405H226.935C227.201 21.8405 227.41 21.6887 227.563 21.3849L227.791 20.9292C228.095 20.3977 227.791 20.1319 226.878 20.1319H213.031C212.385 20.1319 212.194 19.8091 212.461 19.1674L215.082 12.6859C215.349 12.0404 215.805 11.7177 216.448 11.7177H233.883C236.162 11.7177 237.775 12.515 238.726 14.106C239.674 15.6969 239.693 17.6296 238.783 19.904L230.637 39.9752C230.371 40.6207 229.914 40.9434 229.271 40.9434H220.611C219.964 40.9434 219.774 40.6207 220.04 39.9752L223.857 30.6496C223.971 30.3459 223.876 30.194 223.571 30.194H215.878V30.1902Z" fill="#EA5054"/>
<path d="M247.953 12.963C248.296 12.1277 248.901 11.7138 249.776 11.7138H257.865C258.736 11.7138 259.007 12.1315 258.664 12.963L258.493 13.3617C260.087 12.7162 261.75 12.2074 263.477 11.8277C265.205 11.448 266.506 11.2582 267.381 11.2582C270.155 11.2582 271.902 12.0745 272.625 13.7035C273.344 15.3324 273.271 17.2841 272.396 19.5585L269.603 26.5526C269.299 27.388 268.69 27.8018 267.781 27.8018H259.349C258.55 27.8018 258.303 27.3842 258.607 26.5526L260.772 21.0925C261 20.5229 260.791 20.2382 260.144 20.2382C259.84 20.2382 259.243 20.2875 258.348 20.3786C257.454 20.4736 256.571 20.5989 255.7 20.747C255.548 20.8229 255.453 20.8799 255.415 20.9178L247.835 39.679C247.531 40.5143 246.922 40.9282 246.013 40.9282H237.923C237.086 40.9282 236.82 40.5105 237.124 39.679L247.953 12.963Z" fill="#EA5054"/>
<path d="M271.483 32.6355L276.156 21.0356C276.27 20.8077 276.213 20.6938 275.984 20.6938H273.819C273.02 20.6938 272.773 20.2572 273.077 19.3876L275.699 12.9631C276.003 12.1277 276.589 11.7138 277.464 11.7138H279.629C279.896 11.7138 280.048 11.5999 280.086 11.3721L282.708 4.94754C283.05 4.07802 283.636 3.64136 284.473 3.64136H292.962C293.761 3.64136 294.005 4.07802 293.704 4.94754L291.082 11.3721C291.044 11.5999 291.12 11.7138 291.311 11.7138H297.977C298.848 11.7138 299.118 12.1315 298.776 12.9631L296.154 19.3876C295.812 20.261 295.203 20.6938 294.332 20.6938H287.666C287.437 20.6938 287.266 20.8077 287.152 21.0356L283.107 31.0977C282.917 31.6672 283.088 31.952 283.621 31.952H290.687C291.486 31.952 291.729 32.3697 291.429 33.2013L288.807 39.6828C288.503 40.5181 287.913 40.932 287.041 40.932H276.445C274.013 40.932 272.332 40.165 271.403 38.631C270.467 37.097 270.498 35.0998 271.483 32.6355Z" fill="#EA5054"/>
<path d="M368.406 9.67862C369.369 7.68897 369.145 5.79805 367.874 4.78045C366.785 4.15774 365.096 4.40834 363.593 5.40316L353.403 11.9151C354.925 5.02726 350.98 0.0265664 344.005 0.00378418H324.973C322.34 0.00378418 319.33 2.14151 318.253 4.78045L309.437 26.3666C306.173 34.4239 310.019 40.9396 318.071 40.9396H337.103C339.736 40.9396 342.746 38.8018 343.823 36.1629L346.859 28.7283L351.429 34.9972C351.832 35.5934 352.532 35.9427 353.419 35.9655C353.967 35.9655 354.537 35.8402 355.1 35.6161C357.227 34.6707 359.02 32.8291 359.758 30.8395L368.406 9.67862ZM340.52 32.6051C339.641 34.7732 337.537 36.1895 335.193 36.1895H319.863C314.456 36.1629 311.88 31.7622 314.095 26.34L322.028 6.91058C322.523 5.69553 323.706 4.90195 325.022 4.90195H341.954C347.361 4.92853 349.945 9.30271 347.757 14.7249L340.52 32.6051ZM355.496 30.5205L349.522 22.5126L351.372 17.9865L363.894 9.95201L355.496 30.5205Z" fill="#EA5054"/>
<path d="M327.945 27.9575C326.651 27.9575 326.035 26.9133 326.563 25.6185L330.779 15.2982C331.308 14.0034 332.777 12.9592 334.071 12.9592C335.364 12.9592 335.981 14.0034 335.452 15.2982L331.236 25.6185C330.707 26.9133 329.238 27.9575 327.945 27.9575Z" fill="white"/>
<path d="M336.11 26.2185C334.816 26.2185 334.2 25.1743 334.729 23.8795L337.522 17.0411C338.051 15.7463 339.519 14.7021 340.813 14.7021C342.107 14.7021 342.723 15.7463 342.194 17.0411L339.39 23.9061C338.872 25.1705 337.4 26.2185 336.11 26.2185Z" fill="white"/>
<path d="M321.202 26.2185C319.908 26.2185 319.292 25.1743 319.821 23.8795L322.614 17.0411C323.143 15.7463 324.611 14.7021 325.905 14.7021C327.199 14.7021 327.815 15.7463 327.286 17.0411L324.482 23.9061C323.965 25.1705 322.496 26.2185 321.202 26.2185Z" fill="white"/>
<path d="M73.7132 32.2593C73.7132 32.2555 73.7132 32.2517 73.7132 32.2479C73.7132 31.1278 73.504 30.0608 73.055 29.1154C72.4158 27.756 71.3466 26.765 70.011 26.1841L11.1066 0.538919C8.75138 -0.48628 6.05748 -0.0382304 3.70221 1.76916C1.34695 3.57654 0 6.23067 0 9.06326V9.08604V9.11262V9.1354V9.15818V9.18096V9.20374V9.22653V9.24931V9.27209V9.29487V9.31766V9.34044V9.36322V9.386V9.40878V9.43157V9.45435V9.49232V9.5151V9.53788V9.56067V9.58345V9.60623V9.62901V9.65179V9.67458V9.69736V9.72014V9.74292V9.76571V9.78849V9.81127V9.83405V9.87202V9.8948V9.91759V9.94037V9.96315V9.98593V10.0087V10.0315V10.0543V10.0771V10.0998V10.1226V10.1454V10.1682V10.191V10.2138V10.2365V10.2593V10.2821V10.3049V10.3277V10.3504V10.3732V10.396V10.4188V10.4416V10.4644V10.4871V10.5099V10.5327V10.5555V10.5783V10.6011V10.6238V10.6466V10.6694V10.6922V10.715V10.7377V10.7605V10.7833V10.8061V10.8289V10.8517V10.8744V10.8972V10.92V10.9428V10.9656V10.9883V11.0111V11.0339V11.0567V11.0795V11.1023V11.125V11.1478V11.1706V11.1934V11.2162V11.239V11.2617V11.2845V11.3073V11.3301V11.3529V11.3756V11.3984V33.5085V33.5313V33.5541V33.5769V33.5997V33.6225V33.6452V33.668V33.6908V33.7933V33.8161V33.8389V33.8617V33.8844V33.9072V33.93V33.9528V33.9756V33.9984V34.0211V34.0439V34.0667V34.0895V34.1123V34.1351V34.173V34.1958V34.2186V34.2414V34.2642V34.2869V34.3097V34.3325V34.3553V34.3781V34.4008V34.4236V34.4464V34.4692V34.492V34.5148V34.5527V34.5755V34.5983V34.6211V34.6439V34.6666V34.6894V34.7122V34.735V34.7578V34.7805V34.8033V34.8261V34.8489V34.8717V34.8945V34.9324V34.9552V34.978V35.0008V35.0236V35.0463V35.0691V35.0919V35.1147V35.1375V35.1603V35.183V35.2058V35.2286V35.2514V35.2742V35.2969V35.3197V35.3425V35.3653V35.3881V35.4109V35.4336V35.4564V35.4792V35.502V35.5248V35.5476V35.5703V35.5931V35.6159V35.6387V35.6615V35.6842V35.707V35.7298V35.7526V35.7754V35.7982V35.8209V35.8437V35.8665V35.8893V35.9121V35.9348L6.03084 38.5586V10.4188C6.03084 9.83026 6.2287 9.43916 6.71573 9.06705C7.20276 8.69114 7.59848 8.6266 8.08932 8.83923L66.9975 34.4806C67.0165 34.4882 67.028 34.4996 67.047 34.511C67.028 34.5261 67.0165 34.5413 66.9975 34.5565L8.08932 79.8133C7.60228 80.1892 7.20657 80.2538 6.71573 80.0412C6.2287 79.8285 6.03084 79.5058 6.03084 78.9172L6.06509 47.0108V45.3705L0 42.7239V79.9197V79.9424V79.9652V79.988V80.0108V80.0336V80.0564V80.0791V80.1019V80.1247V80.1475V80.1703V80.193V80.2158V80.2386V80.2614V80.2842V80.307V80.3297V80.3525V80.3753V80.3981V80.4209V80.4436V80.4664V80.4892V80.512V80.5348V80.5576V80.5803V80.6031V80.6259V80.6487V80.6715V80.6943V80.717V80.7398V80.7626V80.7854V80.8082V80.8309V80.8537V80.8765V80.8993V80.9221V80.9449V80.9676V80.9904V81.0132V81.036V81.0588V81.0816V81.1043V81.1271V81.1499V81.1727V81.1955V81.2182V81.241V81.2638V81.2866V81.3094V81.3322V81.3549V81.3777V81.4005V81.4233V81.4461V81.4688V81.4916V81.5144V81.5372V81.56V81.5828V81.6055V81.6283V81.6511V81.6739V81.6967V81.7195V81.7422V81.765V81.7878V81.8106V81.8334V81.8561V81.8789V81.9017V81.9245V81.9473V81.9701V81.9928V82.0156V82.0384V82.0612V82.084V82.1068V82.1295V82.1523V82.1751V82.1979V82.2207C0 85.0532 1.34695 87.2593 3.70221 88.2845C6.05748 89.3097 8.75138 88.8617 11.1066 87.0543L70.011 41.9455C71.3466 40.9203 72.4158 39.5762 73.055 38.0042C73.5002 36.9107 73.7132 35.7716 73.7132 34.6515C73.7132 34.6477 73.7132 34.6439 73.7132 34.6401C73.7132 34.6363 73.7132 34.6325 73.7132 34.6287C73.7132 34.6249 73.7132 34.6211 73.7132 34.6173C73.7132 34.6135 73.7132 34.6097 73.7132 34.6059C73.7132 34.6021 73.7132 34.5983 73.7132 34.5945C73.7132 34.5907 73.7132 34.5869 73.7132 34.5831C73.7132 34.5793 73.7132 34.5755 73.7132 34.5717C73.7132 34.5679 73.7132 34.5641 73.7132 34.5603C73.7132 34.5565 73.7132 34.5527 73.7132 34.5489C73.7132 34.5451 73.7132 34.5413 73.7132 34.5375C73.7132 34.5337 73.7132 34.5299 73.7132 34.5261C73.7132 34.5224 73.7132 34.5186 73.7132 34.5148C73.7132 34.511 73.7132 34.5072 73.7132 34.5034C73.7132 34.4996 73.7132 34.4958 73.7132 34.492C73.7132 34.4882 73.7132 34.4844 73.7132 34.4806C73.7132 34.4768 73.7132 34.473 73.7132 34.4692C73.7132 34.4654 73.7132 34.4616 73.7132 34.4578C73.7132 34.454 73.7132 34.4502 73.7132 34.4464C73.7132 34.4426 73.7132 34.4388 73.7132 34.435C73.7132 34.4312 73.7132 34.4274 73.7132 34.4236C73.7132 34.4198 73.7132 34.416 73.7132 34.4122C73.7132 34.4084 73.7132 34.4046 73.7132 34.4008C73.7132 34.397 73.7132 34.3932 73.7132 34.3895C73.7132 34.3857 73.7132 34.3819 73.7132 34.3781C73.7132 34.3743 73.7132 34.3705 73.7132 34.3667C73.7132 34.3629 73.7132 34.3591 73.7132 34.3553C73.7132 34.3515 73.7132 34.3477 73.7132 34.3439C73.7132 34.3401 73.7132 34.3363 73.7132 34.3325C73.7132 34.3287 73.7132 34.3249 73.7132 34.3211C73.7132 34.3173 73.7132 34.3135 73.7132 34.3097C73.7132 34.3059 73.7132 34.3021 73.7132 34.2983C73.7132 34.2945 73.7132 34.2907 73.7132 34.2869C73.7132 34.2831 73.7132 34.2793 73.7132 34.2755C73.7132 34.2717 73.7132 34.2679 73.7132 34.2642C73.7132 34.2604 73.7132 34.2566 73.7132 34.2528C73.7132 34.249 73.7132 34.2452 73.7132 34.2414C73.7132 34.2376 73.7132 34.2338 73.7132 34.23C73.7132 34.2262 73.7132 34.2224 73.7132 34.2186C73.7132 34.2148 73.7132 34.211 73.7132 34.2072C73.7132 34.2034 73.7132 34.1996 73.7132 34.1958C73.7132 34.192 73.7132 34.1882 73.7132 34.1844C73.7132 34.1806 73.7132 34.1768 73.7132 34.173C73.7132 34.1692 73.7132 34.1654 73.7132 34.1616C73.7132 34.1578 73.7132 34.154 73.7132 34.1502C73.7132 34.1464 73.7132 34.1426 73.7132 34.1389C73.7132 34.1351 73.7132 34.1313 73.7132 34.1275C73.7132 34.1237 73.7132 34.1199 73.7132 34.1161C73.7132 34.1123 73.7132 34.1085 73.7132 34.1047C73.7132 34.1009 73.7132 34.0971 73.7132 34.0933C73.7132 34.0895 73.7132 34.0857 73.7132 34.0819C73.7132 34.0781 73.7132 34.0743 73.7132 34.0705C73.7132 34.0667 73.7132 34.0629 73.7132 34.0591C73.7132 34.0553 73.7132 34.0515 73.7132 34.0477C73.7132 34.0439 73.7132 34.0401 73.7132 34.0363C73.7132 34.0325 73.7132 34.0287 73.7132 34.0249C73.7132 34.0211 73.7132 34.0173 73.7132 34.0135C73.7132 34.0098 73.7132 34.006 73.7132 34.0022C73.7132 33.9984 73.7132 33.9946 73.7132 33.9908C73.7132 33.987 73.7132 33.9832 73.7132 33.9794C73.7132 33.9756 73.7132 33.9718 73.7132 33.968C73.7132 33.9642 73.7132 33.9604 73.7132 33.9566C73.7132 33.9528 73.7132 33.949 73.7132 33.9452C73.7132 33.9414 73.7132 33.9376 73.7132 33.9338C73.7132 33.93 73.7132 33.9262 73.7132 33.9224C73.7132 33.9186 73.7132 33.9148 73.7132 33.911C73.7132 33.9072 73.7132 33.9034 73.7132 33.8996C73.7132 33.8958 73.7132 33.892 73.7132 33.8882C73.7132 33.8844 73.7132 33.8807 73.7132 33.8769C73.7132 33.8731 73.7132 33.8693 73.7132 33.8655C73.7132 33.8617 73.7132 33.8579 73.7132 33.8541C73.7132 33.8503 73.7132 33.8465 73.7132 33.8427C73.7132 33.8389 73.7132 33.8351 73.7132 33.8313C73.7132 33.8275 73.7132 33.8237 73.7132 33.8199C73.7132 33.8161 73.7132 33.8123 73.7132 33.8085C73.7132 33.8047 73.7132 33.8009 73.7132 33.7971C73.7132 33.7933 73.7132 33.7895 73.7132 33.7857C73.7132 33.7819 73.7132 33.7781 73.7132 33.7743C73.7132 33.7705 73.7132 33.7667 73.7132 33.7629C73.7132 33.7591 73.7132 33.7553 73.7132 33.7516C73.7132 33.7478 73.7132 33.744 73.7132 33.7402C73.7132 33.7364 73.7132 33.7326 73.7132 33.7288C73.7132 33.725 73.7132 33.7212 73.7132 33.7174C73.7132 33.7136 73.7132 33.7098 73.7132 33.706C73.7132 33.7022 73.7132 33.6984 73.7132 33.6946C73.7132 33.6908 73.7132 33.687 73.7132 33.6832C73.7132 33.6794 73.7132 33.6756 73.7132 33.6718C73.7132 33.668 73.7132 33.6642 73.7132 33.6604C73.7132 33.6566 73.7132 33.6528 73.7132 33.649C73.7132 33.6452 73.7132 33.6414 73.7132 33.6376C73.7132 33.6338 73.7132 33.63 73.7132 33.6263C73.7132 33.6225 73.7132 33.6187 73.7132 33.6149C73.7132 33.6111 73.7132 33.6073 73.7132 33.6035C73.7132 33.5997 73.7132 33.5959 73.7132 33.5921C73.7132 33.5883 73.7132 33.5845 73.7132 33.5807C73.7132 33.5769 73.7132 33.5731 73.7132 33.5693C73.7132 33.5655 73.7132 33.5617 73.7132 33.5579C73.7132 33.5541 73.7132 33.5503 73.7132 33.5465C73.7132 33.5427 73.7132 33.5389 73.7132 33.5351C73.7132 33.5313 73.7132 33.5275 73.7132 33.5237C73.7132 33.5199 73.7132 33.5161 73.7132 33.5123C73.7132 33.5085 73.7132 33.5047 73.7132 33.5009C73.7132 33.4972 73.7132 33.4934 73.7132 33.4896C73.7132 33.4858 73.7132 33.482 73.7132 33.4782C73.7132 33.4744 73.7132 33.4706 73.7132 33.4668C73.7132 33.463 73.7132 33.4592 73.7132 33.4554C73.7132 33.4516 73.7132 33.4478 73.7132 33.444C73.7132 33.4402 73.7132 33.4364 73.7132 33.4326C73.7132 33.4288 73.7132 33.425 73.7132 33.4212C73.7132 33.4174 73.7132 33.4136 73.7132 33.4098C73.7132 33.406 73.7132 33.4022 73.7132 33.3984C73.7132 33.3946 73.7132 33.3908 73.7132 33.387C73.7132 33.3832 73.7132 33.3794 73.7132 33.3756C73.7132 33.3718 73.7132 33.3681 73.7132 33.3643C73.7132 33.3605 73.7132 33.3567 73.7132 33.3529C73.7132 33.3491 73.7132 33.3453 73.7132 33.3415C73.7132 33.3377 73.7132 33.3339 73.7132 33.3301C73.7132 33.3263 73.7132 33.3225 73.7132 33.3187C73.7132 33.3149 73.7132 33.3111 73.7132 33.3073C73.7132 33.3035 73.7132 33.2997 73.7132 33.2959C73.7132 33.2921 73.7132 33.2883 73.7132 33.2845C73.7132 33.2807 73.7132 33.2769 73.7132 33.2731C73.7132 33.2693 73.7132 33.2655 73.7132 33.2617C73.7132 33.2579 73.7132 33.2541 73.7132 33.2503C73.7132 33.2465 73.7132 33.2428 73.7132 33.239C73.7132 33.2352 73.7132 33.2314 73.7132 33.2276C73.7132 33.2238 73.7132 33.22 73.7132 33.2162C73.7132 33.2124 73.7132 33.2086 73.7132 33.2048C73.7132 33.201 73.7132 33.1972 73.7132 33.1934C73.7132 33.1896 73.7132 33.1858 73.7132 33.182C73.7132 33.1782 73.7132 33.1744 73.7132 33.1706C73.7132 33.1668 73.7132 33.163 73.7132 33.1592C73.7132 33.1554 73.7132 33.1516 73.7132 33.1478C73.7132 33.144 73.7132 33.1402 73.7132 33.1364C73.7132 33.1326 73.7132 33.1288 73.7132 33.125C73.7132 33.1212 73.7132 33.1174 73.7132 33.1137C73.7132 33.1099 73.7132 33.1061 73.7132 33.1023C73.7132 33.0985 73.7132 33.0947 73.7132 33.0909C73.7132 33.0871 73.7132 33.0833 73.7132 33.0795C73.7132 33.0757 73.7132 33.0719 73.7132 33.0681C73.7132 33.0643 73.7132 33.0605 73.7132 33.0567C73.7132 33.0529 73.7132 33.0491 73.7132 33.0453C73.7132 33.0415 73.7132 33.0377 73.7132 33.0339C73.7132 33.0301 73.7132 33.0263 73.7132 33.0225C73.7132 33.0187 73.7132 33.0149 73.7132 33.0111C73.7132 33.0073 73.7132 33.0035 73.7132 32.9997C73.7132 32.9959 73.7132 32.9921 73.7132 32.9883C73.7132 32.9846 73.7132 32.9808 73.7132 32.977C73.7132 32.9732 73.7132 32.9694 73.7132 32.9656C73.7132 32.9618 73.7132 32.958 73.7132 32.9542C73.7132 32.9504 73.7132 32.9466 73.7132 32.9428C73.7132 32.939 73.7132 32.9352 73.7132 32.9314C73.7132 32.9276 73.7132 32.9238 73.7132 32.92C73.7132 32.9162 73.7132 32.9124 73.7132 32.9086C73.7132 32.9048 73.7132 32.901 73.7132 32.8972C73.7132 32.8934 73.7132 32.8896 73.7132 32.8858C73.7132 32.882 73.7132 32.8782 73.7132 32.8744C73.7132 32.8706 73.7132 32.8668 73.7132 32.863C73.7132 32.8593 73.7132 32.8555 73.7132 32.8517C73.7132 32.8479 73.7132 32.8441 73.7132 32.8403C73.7132 32.8365 73.7132 32.8327 73.7132 32.8289C73.7132 32.8251 73.7132 32.8213 73.7132 32.8175C73.7132 32.8137 73.7132 32.8099 73.7132 32.8061C73.7132 32.8023 73.7132 32.7985 73.7132 32.7947C73.7132 32.7909 73.7132 32.7871 73.7132 32.7833C73.7132 32.7795 73.7132 32.7757 73.7132 32.7719C73.7132 32.7681 73.7132 32.7643 73.7132 32.7605C73.7132 32.7567 73.7132 32.7529 73.7132 32.7491C73.7132 32.7453 73.7132 32.7415 73.7132 32.7377C73.7132 32.7339 73.7132 32.7302 73.7132 32.7264C73.7132 32.7226 73.7132 32.7188 73.7132 32.715C73.7132 32.7112 73.7132 32.7074 73.7132 32.7036C73.7132 32.6998 73.7132 32.696 73.7132 32.6922C73.7132 32.6884 73.7132 32.6846 73.7132 32.6808C73.7132 32.677 73.7132 32.6732 73.7132 32.6694C73.7132 32.6656 73.7132 32.6618 73.7132 32.658C73.7132 32.6542 73.7132 32.6504 73.7132 32.6466C73.7132 32.6428 73.7132 32.639 73.7132 32.6352C73.7132 32.6314 73.7132 32.6276 73.7132 32.6238C73.7132 32.62 73.7132 32.6162 73.7132 32.6124C73.7132 32.6086 73.7132 32.6049 73.7132 32.6011C73.7132 32.5973 73.7132 32.5935 73.7132 32.5897C73.7132 32.5859 73.7132 32.5821 73.7132 32.5783C73.7132 32.5745 73.7132 32.5707 73.7132 32.5669C73.7132 32.5631 73.7132 32.5593 73.7132 32.5555C73.7132 32.5517 73.7132 32.5479 73.7132 32.5441C73.7132 32.5403 73.7132 32.5365 73.7132 32.5327C73.7132 32.5289 73.7132 32.5251 73.7132 32.5213C73.7132 32.5175 73.7132 32.5137 73.7132 32.5099C73.7132 32.5061 73.7132 32.5023 73.7132 32.4985C73.7132 32.4947 73.7132 32.4909 73.7132 32.4871C73.7132 32.4833 73.7132 32.4795 73.7132 32.4757C73.7132 32.472 73.7132 32.4682 73.7132 32.4644C73.7132 32.4606 73.7132 32.4568 73.7132 32.453C73.7132 32.4492 73.7132 32.4454 73.7132 32.4416C73.7132 32.4378 73.7132 32.434 73.7132 32.4302C73.7132 32.4264 73.7132 32.4226 73.7132 32.4188C73.7132 32.415 73.7132 32.4112 73.7132 32.4074C73.7132 32.4036 73.7132 32.3998 73.7132 32.396C73.7132 32.3922 73.7132 32.3884 73.7132 32.3846C73.7132 32.3808 73.7132 32.377 73.7132 32.3732C73.7132 32.2669 73.7132 32.2631 73.7132 32.2593Z" fill="#EA5054"/>
</svg>
